<svg width="18" height="12" viewBox="0 0 18 12" fill="none" xmlns="http://www.w3.org/2000/svg">
<path fill-rule="evenodd" clip-rule="evenodd" d="M1.80597 2.15823L8.99997 10.3797L16.194 2.15823H1.80597ZM0.676474 3.14673L7.87047 11.3667C8.01127 11.5278 8.1849 11.657 8.37971 11.7455C8.57452 11.8339 8.78601 11.8797 8.99997 11.8797C9.21394 11.8797 9.42542 11.8339 9.62024 11.7455C9.81505 11.657 9.98868 11.5278 10.1295 11.3667L17.3235 3.14673C18.1725 2.17623 17.4825 0.658234 16.194 0.658234H1.80597C1.51761 0.657987 1.23528 0.740865 0.992806 0.896945C0.750331 1.05302 0.557984 1.27569 0.438801 1.53827C0.319617 1.80086 0.278648 2.09223 0.320801 2.3775C0.362954 2.66277 0.486441 2.92984 0.676474 3.14673Z" fill="#808080"/>
</svg>
