<svg width="24" height="24" viewBox="0 0 24 24" fill="none" xmlns="http://www.w3.org/2000/svg">
<g clip-path="url(#clip0_239_5289)">
<path fill-rule="evenodd" clip-rule="evenodd" d="M12.0023 4.12091L10.9268 3.01541C8.40227 0.420411 3.77327 1.31591 2.10227 4.57841C1.31777 6.11291 1.14077 8.32841 2.57327 11.1559C3.95327 13.8784 6.82427 17.1394 12.0023 20.6914C17.1803 17.1394 20.0498 13.8784 21.4313 11.1559C22.8638 8.32691 22.6883 6.11291 21.9023 4.57841C20.2313 1.31591 15.6023 0.418911 13.0778 3.01391L12.0023 4.12091ZM12.0023 22.4989C-10.9972 7.30091 4.92077 -4.56109 11.7383 1.71341C11.8283 1.79591 11.9168 1.88141 12.0023 1.96991C12.0869 1.88149 12.175 1.79642 12.2663 1.71491C19.0823 -4.56409 35.0018 7.29941 12.0023 22.4989Z" fill="#808080"/>
</g>
<defs>
<clipPath id="clip0_239_5289">
<rect width="24" height="24" fill="white"/>
</clipPath>
</defs>
</svg>
