<svg width="28" height="28" viewBox="0 0 24 20" fill="none" xmlns="http://www.w3.org/2000/svg">
<path fill-rule="evenodd" clip-rule="evenodd" d="M0.75 12C0.948912 12 1.13968 12.079 1.28033 12.2196C1.42098 12.3603 1.5 12.5511 1.5 12.75V18C1.5 18.3978 1.65804 18.7793 1.93934 19.0606C2.22064 19.3419 2.60218 19.5 3 19.5H21C21.3978 19.5 21.7794 19.3419 22.0607 19.0606C22.342 18.7793 22.5 18.3978 22.5 18V12.75C22.5 12.5511 22.579 12.3603 22.7197 12.2196C22.8603 12.079 23.0511 12 23.25 12C23.4489 12 23.6397 12.079 23.7803 12.2196C23.921 12.3603 24 12.5511 24 12.75V18C24 18.7956 23.6839 19.5587 23.1213 20.1213C22.5587 20.6839 21.7956 21 21 21H3C2.20435 21 1.44129 20.6839 0.87868 20.1213C0.316071 19.5587 0 18.7956 0 18V12.75C0 12.5511 0.0790176 12.3603 0.21967 12.2196C0.360322 12.079 0.551088 12 0.75 12V12ZM7.5 7.28097C7.64065 7.42158 7.83138 7.50056 8.03025 7.50056C8.22912 7.50056 8.41985 7.42158 8.5605 7.28097L12 3.83997L15.4395 7.27947C15.5087 7.35111 15.5914 7.40824 15.6829 7.44755C15.7744 7.48686 15.8729 7.50755 15.9724 7.50841C16.072 7.50928 16.1708 7.4903 16.263 7.45259C16.3551 7.41488 16.4389 7.35919 16.5093 7.28877C16.5797 7.21835 16.6354 7.13461 16.6731 7.04244C16.7108 6.95027 16.7298 6.85151 16.7289 6.75192C16.7281 6.65234 16.7074 6.55392 16.6681 6.46242C16.6288 6.37092 16.5716 6.28816 16.5 6.21897L12.531 2.24997C12.4613 2.18013 12.3786 2.12471 12.2874 2.0869C12.1963 2.04909 12.0987 2.02963 12 2.02963C11.9013 2.02963 11.8037 2.04909 11.7125 2.0869C11.6214 2.12471 11.5387 2.18013 11.469 2.24997L7.5 6.21897C7.43016 6.28864 7.37474 6.3714 7.33693 6.46252C7.29912 6.55364 7.27966 6.65132 7.27966 6.74997C7.27966 6.84862 7.29912 6.94631 7.33693 7.03742C7.37474 7.12854 7.43016 7.2113 7.5 7.28097Z" fill="#808080"/>
<path fill-rule="evenodd" clip-rule="evenodd" d="M12 3C12.1989 3 12.3897 3.07902 12.5303 3.21967C12.671 3.36032 12.75 3.55109 12.75 3.75V15.75C12.75 15.9489 12.671 16.1397 12.5303 16.2803C12.3897 16.421 12.1989 16.5 12 16.5C11.8011 16.5 11.6103 16.421 11.4697 16.2803C11.329 16.1397 11.25 15.9489 11.25 15.75V3.75C11.25 3.55109 11.329 3.36032 11.4697 3.21967C11.6103 3.07902 11.8011 3 12 3Z" fill="#808080"/>
</svg>
